<svg width="20" height="10" viewBox="0 0 20 10" fill="none" xmlns="http://www.w3.org/2000/svg">
<path fill-rule="evenodd" clip-rule="evenodd" d="M5.14071 1.92001C3.38182 1.92001 1.95596 3.34587 1.95596 5.10476C1.95596 6.86364 3.38182 8.2895 5.14071 8.2895H7.10055C7.50644 8.2895 7.83549 8.61854 7.83549 9.02444C7.83549 9.43033 7.50644 9.75938 7.10055 9.75938H5.14071C2.57003 9.75938 0.486084 7.67543 0.486084 5.10476C0.486084 2.53408 2.57003 0.450134 5.14071 0.450134H7.10055C7.50644 0.450134 7.83549 0.779178 7.83549 1.18507C7.83549 1.59097 7.50644 1.92001 7.10055 1.92001H5.14071ZM12.2451 1.18507C12.2451 0.779178 12.5742 0.450134 12.9801 0.450134H14.9399C17.5106 0.450134 19.5945 2.53408 19.5945 5.10476C19.5945 7.67543 17.5106 9.75938 14.9399 9.75938H12.9801C12.5742 9.75938 12.2451 9.43033 12.2451 9.02444C12.2451 8.61854 12.5742 8.2895 12.9801 8.2895H14.9399C16.6988 8.2895 18.1246 6.86364 18.1246 5.10476C18.1246 3.34587 16.6988 1.92001 14.9399 1.92001H12.9801C12.5742 1.92001 12.2451 1.59097 12.2451 1.18507ZM5.38569 5.10476C5.38569 4.69886 5.71473 4.36982 6.12063 4.36982H13.96C14.3659 4.36982 14.6949 4.69886 14.6949 5.10476C14.6949 5.51065 14.3659 5.8397 13.96 5.8397H6.12063C5.71473 5.8397 5.38569 5.51065 5.38569 5.10476Z" fill="#656D72"/>
</svg>
