<svg width="21" height="23" viewBox="0 0 21 23" fill="none" xmlns="http://www.w3.org/2000/svg">
<path d="M8.79149 19.6057C8.79146 19.4619 8.75984 19.32 8.69884 19.1899C8.63784 19.0597 8.54898 18.9446 8.43853 18.8527C8.32809 18.7607 8.19877 18.6942 8.05975 18.6578C7.92072 18.6214 7.77539 18.616 7.63405 18.642C6.35126 18.8774 4.73162 18.9128 4.30098 17.7032C3.92548 16.7664 3.30349 15.9487 2.50096 15.3367C2.4437 15.3056 2.38912 15.2697 2.3378 15.2295C2.26756 15.0443 2.14281 14.8846 1.97999 14.7717C1.81718 14.6588 1.62396 14.5979 1.42582 14.597H1.42104C1.16194 14.5969 0.913366 14.6995 0.729713 14.8822C0.546059 15.065 0.442289 15.313 0.441115 15.5721C0.437283 16.3712 1.23583 16.8832 1.55979 17.0564C1.94181 17.4402 2.24882 17.892 2.46507 18.3884C2.82202 19.3913 3.85935 20.9129 6.84122 20.7167C6.8422 20.7512 6.84313 20.7837 6.84361 20.8134L6.84791 21.0756C6.84791 21.3355 6.95115 21.5847 7.13492 21.7685C7.3187 21.9523 7.56794 22.0555 7.82783 22.0555C8.08772 22.0555 8.33697 21.9523 8.52074 21.7685C8.70451 21.5847 8.80775 21.3355 8.80775 21.0756L8.80297 20.7636C8.79819 20.5779 8.79149 20.309 8.79149 19.6057ZM19.2443 4.78338C19.2754 4.66089 19.306 4.525 19.3328 4.37189C19.4913 3.27985 19.3531 2.16529 18.9328 1.14501C18.8798 1.012 18.7983 0.892199 18.6941 0.794006C18.5898 0.695814 18.4654 0.621607 18.3295 0.576588C17.9806 0.45888 16.6926 0.227296 14.2294 1.80149C12.1819 1.31966 10.0505 1.31966 8.00297 1.80149C5.54981 0.250354 4.26845 0.46084 3.92299 0.571846C3.78371 0.615041 3.65585 0.688855 3.5488 0.787877C3.44175 0.886899 3.35822 1.00862 3.30431 1.14412C2.8754 2.18399 2.73874 3.32128 2.90909 4.43316C2.93302 4.55852 2.95885 4.67432 2.98565 4.78053C2.17386 5.86182 1.74146 7.18072 1.75549 8.53275C1.75285 8.8344 1.76674 9.13597 1.79712 9.43611C2.12441 13.9462 5.06417 15.3003 7.11251 15.7654C7.06993 15.8879 7.03118 16.019 6.99672 16.1578C6.93532 16.4099 6.97641 16.6761 7.11098 16.898C7.24555 17.1198 7.46262 17.2793 7.71458 17.3414C7.96655 17.4034 8.23285 17.3631 8.45508 17.2291C8.67732 17.0951 8.83736 16.8785 8.9001 16.6267C8.96245 16.3002 9.12227 16.0002 9.35849 15.7664C9.50132 15.6413 9.60473 15.4775 9.65614 15.2947C9.70756 15.112 9.70476 14.9182 9.64808 14.7371C9.59141 14.5559 9.4833 14.3951 9.33692 14.2742C9.19053 14.1534 9.01218 14.0776 8.82355 14.0563C5.43881 13.6697 3.9694 12.2907 3.74835 9.25621C3.72386 9.01586 3.71284 8.77434 3.71533 8.53276C3.69961 7.56916 4.01796 6.62983 4.6163 5.87434C4.67642 5.79558 4.74046 5.71988 4.80817 5.64754C4.92814 5.51329 5.00881 5.34859 5.0413 5.1715C5.0738 4.99441 5.05688 4.8118 4.99239 4.6437C4.92628 4.46685 4.87538 4.28469 4.84024 4.09919C4.76041 3.57171 4.78659 3.03361 4.91726 2.51638C5.76895 2.75692 6.5705 3.14847 7.28377 3.67237C7.40172 3.75094 7.53519 3.80322 7.67512 3.82568C7.81505 3.84813 7.95818 3.84024 8.09479 3.80253C10.0753 3.26504 12.1633 3.26538 14.1437 3.8035C14.281 3.84117 14.4249 3.84862 14.5654 3.82533C14.7059 3.80203 14.8397 3.74856 14.9576 3.66858C15.6675 3.1425 16.4657 2.74745 17.3146 2.50205C17.4447 3.00686 17.4738 3.5324 17.4002 4.04849C17.3647 4.25186 17.3093 4.45123 17.2346 4.64372C17.1702 4.81182 17.1532 4.99443 17.1857 5.17152C17.2182 5.3486 17.2989 5.51331 17.4189 5.64756C17.4945 5.73272 17.5701 5.82459 17.638 5.91072C18.2321 6.65341 18.5451 7.58194 18.5218 8.53275C18.5236 8.78714 18.5113 9.04144 18.4849 9.29448C18.2692 12.2888 16.794 13.6687 13.3935 14.0563C13.2048 14.0778 13.0264 14.1536 12.8801 14.2746C12.7337 14.3956 12.6256 14.5565 12.569 14.7377C12.5124 14.919 12.5097 15.1128 12.5611 15.2956C12.6126 15.4784 12.7161 15.6423 12.859 15.7673C13.1027 16.0074 13.2628 16.3194 13.316 16.6573C13.3822 16.9196 13.4126 17.1897 13.4064 17.4602V19.7473C13.3968 20.3817 13.3968 20.8573 13.3968 21.0755C13.3968 21.3354 13.5 21.5847 13.6838 21.7684C13.8676 21.9522 14.1168 22.0555 14.3767 22.0555C14.6366 22.0555 14.8859 21.9522 15.0696 21.7684C15.2534 21.5847 15.3566 21.3354 15.3566 21.0755C15.3566 20.8631 15.3566 20.3971 15.3662 19.7626V17.4602C15.3741 17.0269 15.3231 16.5945 15.2145 16.175C15.1835 16.0372 15.1455 15.9012 15.1007 15.7673C16.5914 15.5197 17.9458 14.7511 18.923 13.5984C19.9001 12.4457 20.4365 10.9836 20.4366 9.47248C20.4689 9.1603 20.4839 8.84658 20.4816 8.53275C20.5034 7.17925 20.0674 5.85808 19.2443 4.7834L19.2443 4.78338Z" fill="#232E35"/>
</svg>
