<svg width="20" height="21" viewBox="0 0 20 21" fill="none" xmlns="http://www.w3.org/2000/svg">
<path d="M9.80689 5.37372C8.83784 5.37372 7.89056 5.66108 7.08482 6.19945C6.27909 6.73783 5.65109 7.50304 5.28025 8.39833C4.90941 9.29361 4.81238 10.2788 5.00144 11.2292C5.19049 12.1796 5.65713 13.0526 6.34235 13.7379C7.02757 14.4231 7.9006 14.8897 8.85103 15.0788C9.80146 15.2678 10.7866 15.1708 11.6819 14.8C12.5772 14.4291 13.3424 13.8011 13.8808 12.9954C14.4191 12.1897 14.7065 11.2424 14.7065 10.2733C14.7065 8.97387 14.1903 7.72764 13.2714 6.80878C12.3526 5.88993 11.1063 5.37372 9.80689 5.37372V5.37372ZM9.80689 13.2131C9.22546 13.2131 8.65709 13.0407 8.17365 12.7176C7.69021 12.3946 7.31341 11.9355 7.09091 11.3983C6.8684 10.8612 6.81019 10.2701 6.92362 9.69981C7.03705 9.12955 7.31704 8.60573 7.72817 8.1946C8.1393 7.78347 8.66312 7.50348 9.23337 7.39005C9.80363 7.27662 10.3947 7.33484 10.9319 7.55734C11.4691 7.77984 11.9282 8.15664 12.2512 8.64008C12.5742 9.12352 12.7467 9.69189 12.7467 10.2733C12.7467 11.053 12.4369 11.8007 11.8856 12.352C11.3343 12.9034 10.5866 13.2131 9.80689 13.2131ZM14.7065 4.3938C14.5127 4.3938 14.3232 4.45127 14.1621 4.55895C14.0009 4.66662 13.8753 4.81967 13.8012 4.99872C13.727 5.17778 13.7076 5.37481 13.7454 5.5649C13.7832 5.75498 13.8765 5.92959 14.0136 6.06663C14.1506 6.20367 14.3252 6.297 14.5153 6.33481C14.7054 6.37262 14.9024 6.35322 15.0815 6.27905C15.2606 6.20488 15.4136 6.07928 15.5213 5.91814C15.6289 5.75699 15.6864 5.56753 15.6864 5.37372C15.6864 5.11383 15.5832 4.86458 15.3994 4.68081C15.2156 4.49704 14.9664 4.3938 14.7065 4.3938ZM19.5473 6.58882C19.5311 5.75141 19.372 4.92291 19.0769 4.13902C18.8033 3.42571 18.3828 2.77791 17.8425 2.23768C17.3023 1.69746 16.6545 1.27689 15.9412 1.00328C15.1573 0.708223 14.3288 0.549151 13.4914 0.532916C12.5409 0.474121 12.2273 0.474121 9.80689 0.474121C7.38649 0.474121 7.07292 0.474121 6.12239 0.532916C5.28498 0.549151 4.45648 0.708223 3.67259 1.00328C2.95927 1.27689 2.31147 1.69746 1.77125 2.23768C1.23103 2.77791 0.810457 3.42571 0.536847 4.13902C0.241793 4.92291 0.0827206 5.75141 0.0664856 6.58882C0.00769038 7.54915 0.00769043 7.86272 0.00769043 10.2733C0.00769043 12.6839 0.00769038 12.9975 0.0664856 13.9578C0.0827206 14.7952 0.241793 15.6237 0.536847 16.4076C0.810457 17.1209 1.23103 17.7687 1.77125 18.309C2.31147 18.8492 2.95927 19.2698 3.67259 19.5434C4.45648 19.8384 5.28498 19.9975 6.12239 20.0137C7.10231 20.0137 7.38649 20.0725 9.80689 20.0725C12.2273 20.0725 12.5409 20.0725 13.4914 20.0137C14.3288 19.9975 15.1573 19.8384 15.9412 19.5434C16.6545 19.2698 17.3023 18.8492 17.8425 18.309C18.3828 17.7687 18.8033 17.1209 19.0769 16.4076C19.372 15.6237 19.5311 14.7952 19.5473 13.9578C19.5473 12.9779 19.6061 12.6839 19.6061 10.2733C19.6061 7.86272 19.6061 7.54915 19.5473 6.58882ZM17.5875 13.8696C17.5703 14.4915 17.4545 15.1067 17.2445 15.6923C17.0708 16.1551 16.7964 16.5736 16.441 16.9172C16.0994 17.2727 15.6801 17.5444 15.2161 17.7109C14.6291 17.9295 14.0098 18.0488 13.3836 18.0637C12.4625 18.0637 12.1783 18.1127 9.79709 18.1127C7.41589 18.1127 7.14151 18.1127 6.22039 18.1127C5.59522 18.0965 4.97662 17.9808 4.38793 17.7697C3.92508 17.5961 3.50666 17.3216 3.16303 16.9662C2.80747 16.6246 2.53581 16.2054 2.3693 15.7413C2.15156 15.1575 2.03235 14.5415 2.01653 13.9186C2.01653 12.9387 2.01653 12.6937 2.01653 10.3223C2.01653 7.95091 2.01653 7.66674 2.01653 6.72601C2.03342 6.10005 2.15258 5.48106 2.3693 4.89356C2.53839 4.43362 2.8098 4.01812 3.16303 3.67846C3.50461 3.3229 3.92385 3.05123 4.38793 2.88473C4.9749 2.6661 5.59421 2.54688 6.22039 2.53195C7.14151 2.43396 7.42569 2.43396 9.80689 2.43396C12.1881 2.43396 12.4723 2.43396 13.3934 2.43396C14.0226 2.44996 14.645 2.56914 15.2357 2.78673C15.6956 2.95583 16.1111 3.22724 16.4508 3.58047C16.8063 3.92204 17.078 4.34129 17.2445 4.80537C17.4844 5.40171 17.6203 6.03476 17.6463 6.67702C17.6463 7.65694 17.6953 7.90192 17.6953 10.2733C17.6953 12.6447 17.6463 12.9289 17.6463 13.8696H17.5875Z" fill="#232E35"/>
</svg>
