<svg width="22" height="22" viewBox="0 0 22 22" fill="none" xmlns="http://www.w3.org/2000/svg">
<path d="M15.823 7.3327C14.9457 7.33233 14.082 7.54932 13.3091 7.96429C13.2385 7.77852 13.1132 7.61861 12.9496 7.5058C12.786 7.39298 12.592 7.33261 12.3933 7.3327H8.47359C8.34488 7.33263 8.21743 7.35792 8.0985 7.40714C7.97958 7.45636 7.87153 7.52854 7.78052 7.61955C7.68951 7.71056 7.61733 7.81861 7.56811 7.93754C7.51889 8.05646 7.4936 8.18392 7.49367 8.31262V20.0717C7.4936 20.2004 7.51889 20.3278 7.56811 20.4468C7.61733 20.5657 7.68951 20.6737 7.78052 20.7647C7.87152 20.8557 7.97958 20.9279 8.0985 20.9771C8.21743 21.0264 8.34488 21.0517 8.47359 21.0516H12.3933C12.522 21.0517 12.6494 21.0264 12.7684 20.9771C12.8873 20.9279 12.9953 20.8557 13.0863 20.7647C13.1774 20.6737 13.2495 20.5657 13.2988 20.4468C13.348 20.3278 13.3733 20.2004 13.3732 20.0717V14.6821C13.3732 14.4222 13.4764 14.173 13.6602 13.9892C13.844 13.8054 14.0932 13.7022 14.3531 13.7022C14.613 13.7022 14.8622 13.8054 15.046 13.9892C15.2298 14.173 15.333 14.4222 15.333 14.6821V20.0717C15.333 20.2004 15.3583 20.3278 15.4075 20.4468C15.4567 20.5657 15.5289 20.6737 15.6199 20.7647C15.7109 20.8557 15.8189 20.9279 15.9379 20.9771C16.0568 21.0264 16.1842 21.0517 16.313 21.0516H20.2326C20.3613 21.0517 20.4888 21.0264 20.6077 20.9771C20.7266 20.9279 20.8347 20.8557 20.9257 20.7647C21.0167 20.6737 21.0889 20.5657 21.1381 20.4468C21.1873 20.3278 21.2126 20.2004 21.2126 20.0717V12.7223C21.2108 11.2934 20.6424 9.92358 19.632 8.91323C18.6217 7.90287 17.2518 7.33448 15.823 7.3327V7.3327ZM19.2527 19.0917H17.2929V14.6821C17.2929 13.9024 16.9831 13.1547 16.4318 12.6034C15.8805 12.0521 15.1328 11.7423 14.3531 11.7423C13.5734 11.7423 12.8257 12.0521 12.2744 12.6034C11.7231 13.1547 11.4134 13.9024 11.4134 14.6821V19.0917H9.45351V9.29254H11.4134V9.98155C11.4135 10.1846 11.4766 10.3826 11.5941 10.5482C11.7116 10.7138 11.8776 10.8389 12.0691 10.9061C12.2607 10.9733 12.4685 10.9794 12.6637 10.9235C12.8589 10.8676 13.0319 10.7525 13.1588 10.594C13.5986 10.0355 14.2018 9.62823 14.8842 9.42911C15.5666 9.23 16.2942 9.24895 16.9653 9.48334C17.6364 9.71773 18.2176 10.1558 18.6277 10.7365C19.0378 11.3172 19.2563 12.0114 19.2527 12.7223V19.0917ZM5.53383 7.3327H1.61415C1.48544 7.33263 1.35799 7.35792 1.23906 7.40714C1.12014 7.45636 1.01208 7.52854 0.921076 7.61955C0.830068 7.71056 0.75789 7.81861 0.708671 7.93754C0.659451 8.05646 0.634155 8.18392 0.634228 8.31262V20.0717C0.634154 20.2004 0.659449 20.3278 0.708668 20.4468C0.757887 20.5657 0.830065 20.6737 0.921074 20.7647C1.01208 20.8557 1.12014 20.9279 1.23906 20.9771C1.35798 21.0264 1.48544 21.0517 1.61415 21.0516H5.53383C5.66254 21.0517 5.78999 21.0264 5.90892 20.9771C6.02784 20.9279 6.1359 20.8557 6.2269 20.7647C6.31791 20.6737 6.39009 20.5657 6.43931 20.4468C6.48853 20.3278 6.51382 20.2004 6.51375 20.0717V8.31262C6.51382 8.18392 6.48853 8.05646 6.43931 7.93754C6.39009 7.81861 6.31791 7.71056 6.2269 7.61955C6.13589 7.52854 6.02784 7.45636 5.90892 7.40714C5.78999 7.35792 5.66254 7.33263 5.53383 7.3327V7.3327ZM4.55391 19.0917H2.59407V9.29254H4.55391V19.0917ZM3.58834 0.0254359C3.15949 -0.000234703 2.7299 0.0615922 2.32569 0.207157C1.92149 0.352721 1.55111 0.578982 1.23709 0.872178C0.923072 1.16537 0.67197 1.51938 0.499057 1.91266C0.326143 2.30595 0.235031 2.7303 0.231262 3.1599C0.227493 3.5895 0.311145 4.01538 0.477132 4.41164C0.643119 4.8079 0.887971 5.16626 1.1968 5.46492C1.50563 5.76358 1.87197 5.9963 2.27356 6.14893C2.67516 6.30157 3.1036 6.37092 3.53283 6.35278H3.56058C3.99057 6.37832 4.42125 6.31592 4.8263 6.16939C5.23136 6.02286 5.60228 5.79528 5.91641 5.50055C6.23054 5.20583 6.48128 4.85015 6.6533 4.45524C6.82532 4.06034 6.91502 3.63451 6.91691 3.20377C6.9188 2.77303 6.83284 2.34643 6.66429 1.95003C6.49573 1.55363 6.24813 1.19577 5.9366 0.898296C5.62506 0.600826 5.25615 0.37 4.8524 0.219923C4.44864 0.0698453 4.01853 0.00366853 3.58834 0.0254359H3.58834ZM3.56059 4.39294H3.53283C3.36337 4.41352 3.19147 4.39762 3.02865 4.34632C2.86584 4.29502 2.71588 4.2095 2.58882 4.0955C2.46176 3.98149 2.36055 3.84164 2.29197 3.68532C2.22339 3.52899 2.18903 3.35981 2.19119 3.18912C2.19119 2.458 2.73953 1.98527 3.58834 1.98527C3.75954 1.96245 3.93363 1.97657 4.0989 2.0267C4.26417 2.07683 4.41678 2.16179 4.54645 2.27586C4.67612 2.38994 4.77984 2.53047 4.85062 2.68801C4.9214 2.84554 4.9576 3.01642 4.95678 3.18912C4.95678 3.92023 4.40845 4.39294 3.56059 4.39294Z" fill="#232E35"/>
</svg>
