<svg width="23" height="19" viewBox="0 0 23 19" fill="none" xmlns="http://www.w3.org/2000/svg">
<path d="M22.3285 1.38536C22.3286 1.21227 22.2828 1.04225 22.1958 0.892597C22.1089 0.74295 21.9838 0.619025 21.8334 0.533443C21.6829 0.447862 21.5125 0.403681 21.3394 0.4054C21.1663 0.40712 20.9968 0.454678 20.8481 0.543231C20.2745 0.884621 19.657 1.14606 19.0127 1.32031C18.0925 0.53072 16.9189 0.0986449 15.7064 0.103061C14.3763 0.104592 13.0987 0.623 12.1436 1.54882C11.1885 2.47463 10.6306 3.73539 10.5877 5.06487C7.96539 4.6467 5.58874 3.27801 3.91094 1.2198C3.80985 1.09715 3.68074 1.0006 3.53451 0.938312C3.38829 0.87602 3.22922 0.849806 3.07074 0.861882C2.91234 0.874924 2.75951 0.926353 2.62545 1.01172C2.4914 1.09709 2.38015 1.21383 2.30134 1.35184C1.89715 2.0572 1.66501 2.84794 1.62378 3.65985C1.58254 4.47177 1.73337 5.28196 2.06402 6.02464L2.06211 6.02655C1.9135 6.11808 1.79086 6.24621 1.70591 6.39867C1.62096 6.55114 1.57655 6.72285 1.57693 6.89739C1.57513 7.04136 1.58376 7.18528 1.60277 7.32801C1.70285 8.56101 2.2493 9.71515 3.13964 10.574C3.07924 10.6891 3.04237 10.815 3.0312 10.9445C3.02003 11.074 3.03477 11.2044 3.07456 11.3281C3.46272 12.5374 4.28819 13.5584 5.38943 14.1913C4.2706 14.6239 3.06254 14.7748 1.87167 14.6305C1.65126 14.6029 1.42799 14.6509 1.23849 14.7669C1.04899 14.8828 0.904512 15.0596 0.828753 15.2685C0.752994 15.4773 0.750453 15.7057 0.821547 15.9161C0.892641 16.1266 1.03315 16.3066 1.22002 16.4267C3.26815 17.7459 5.65286 18.4472 8.08904 18.4469C10.8517 18.4779 13.5472 17.5951 15.7562 15.9358C17.9652 14.2764 19.5639 11.9335 20.3035 9.27156C20.6495 8.11195 20.8262 6.90845 20.828 5.69834C20.828 5.63422 20.828 5.56819 20.827 5.50217C21.3386 4.9504 21.735 4.30206 21.9928 3.59514C22.2506 2.88822 22.3647 2.13695 22.3285 1.38536V1.38536ZM19.0882 4.53277C18.9264 4.72419 18.8445 4.9706 18.8595 5.22082C18.8691 5.38251 18.8681 5.54517 18.8681 5.69834C18.8661 6.72092 18.7162 7.73784 18.4231 8.71753C17.819 10.9825 16.4723 12.9792 14.5986 14.3879C12.7249 15.7966 10.4327 16.5358 8.08904 16.487C7.24717 16.4873 6.4082 16.3884 5.58948 16.1923C6.63349 15.8558 7.60967 15.3371 8.47277 14.6602C8.63174 14.535 8.74808 14.3638 8.80584 14.1698C8.86359 13.9759 8.85992 13.7689 8.79534 13.5771C8.73076 13.3854 8.60842 13.2183 8.44512 13.0989C8.28182 12.9794 8.08555 12.9134 7.88325 12.9099C7.06877 12.8973 6.29101 12.5689 5.71384 11.9941C5.86026 11.9664 6.00572 11.9319 6.15022 11.8908C6.36189 11.8305 6.54713 11.7008 6.6761 11.5225C6.80507 11.3441 6.87028 11.1276 6.86122 10.9077C6.85216 10.6878 6.76936 10.4774 6.62615 10.3102C6.48294 10.1431 6.28766 10.0291 6.07174 9.98645C5.59897 9.89308 5.15409 9.69195 4.7717 9.39867C4.3893 9.1054 4.07969 8.7279 3.86692 8.29551C4.04402 8.31968 4.22225 8.33469 4.4009 8.34049C4.61314 8.34369 4.82089 8.27931 4.99412 8.15666C5.16735 8.034 5.29708 7.85943 5.36455 7.65818C5.42921 7.4551 5.42588 7.23648 5.35508 7.03547C5.28427 6.83445 5.14986 6.66201 4.9722 6.54428C4.54118 6.25714 4.18811 5.86757 3.94462 5.41047C3.70112 4.95337 3.5748 4.44302 3.57696 3.92511C3.57696 3.86005 3.57887 3.79497 3.58271 3.73085C5.77896 5.77914 8.62765 6.98659 11.6269 7.14048C11.7783 7.14644 11.929 7.11793 12.0678 7.05708C12.2066 6.99624 12.3297 6.90467 12.4278 6.78927C12.525 6.67276 12.5939 6.53528 12.6289 6.38766C12.6639 6.24004 12.6642 6.0863 12.6297 5.93854C12.5737 5.7047 12.5451 5.46512 12.5445 5.22465C12.5454 4.38637 12.8788 3.58267 13.4716 2.98991C14.0644 2.39715 14.8681 2.06376 15.7064 2.06287C16.1376 2.06172 16.5645 2.14999 16.96 2.32211C17.3554 2.49423 17.7109 2.74646 18.004 3.06289C18.117 3.18448 18.2593 3.27514 18.4172 3.32623C18.5752 3.37732 18.7436 3.38716 18.9064 3.3548C19.3089 3.27646 19.7057 3.17096 20.094 3.03901C19.8291 3.58088 19.4907 4.08355 19.0882 4.53277V4.53277Z" fill="#232E35"/>
</svg>
