<svg width="20" height="21" viewBox="0 0 20 21" fill="none" xmlns="http://www.w3.org/2000/svg">
<path d="M18.9962 10.4826C18.9962 15.3534 15.0477 19.3019 10.177 19.3019M18.9962 10.4826C18.9962 5.61186 15.0477 1.66333 10.177 1.66333M18.9962 10.4826H1.35767M10.177 19.3019C5.3062 19.3019 1.35767 15.3534 1.35767 10.4826M10.177 19.3019C10.177 19.3019 14.0966 16.3621 14.0966 10.4826C14.0966 4.60309 10.177 1.66333 10.177 1.66333M10.177 19.3019C10.177 19.3019 6.25727 16.3621 6.25727 10.4826C6.25727 4.60309 10.177 1.66333 10.177 1.66333M1.35767 10.4826C1.35767 5.61186 5.3062 1.66333 10.177 1.66333" stroke="#7E74F1" stroke-width="1.46988"/>
</svg>
