<svg width="18" height="19" viewBox="0 0 18 19" fill="none" xmlns="http://www.w3.org/2000/svg">
<path fill-rule="evenodd" clip-rule="evenodd" d="M10.1062 0.909974C9.46824 0.584624 8.60378 0.579604 7.96073 0.904116C5.71314 2.3657 3.33667 3.75899 1.30109 5.15603C0.998132 5.40065 0.783128 5.75611 0.786796 6.17451C0.79045 6.59119 1.00983 6.9419 1.31095 7.18248C3.33667 8.40327 5.71314 9.79655 7.91103 11.3963C8.54899 11.7216 9.41344 11.7266 10.0565 11.4021C12.3673 9.79655 13.3178 9.33212 16.7161 7.15021C17.0191 6.90559 17.2341 6.55013 17.2304 6.13173C17.2268 5.71505 17.0074 5.36434 16.7063 5.12376C14.7437 3.75899 12.3673 2.3657 10.1062 0.909974ZM8.61503 2.14205C8.84285 2.02708 9.21708 2.02817 9.44645 2.14515C11.4167 3.29456 13.3178 4.68784 15.727 6.14126C13.7931 7.47441 11.892 8.86769 9.4022 10.1642C9.17438 10.2792 8.80014 10.2781 8.57077 10.1611C6.29836 8.86769 4.28726 7.47441 2.29026 6.16498C4.28726 4.68784 5.71314 3.75899 8.61503 2.14205Z" fill="#7E74F1"/>
<path d="M17.7512 9.58341C17.9597 9.90977 17.858 10.3395 17.524 10.5433L11.7185 14.0849C10.9414 14.4408 9.98502 14.9052 9.0402 14.9053C8.09538 14.9053 7.13902 14.4408 6.29836 14.0852L0.556489 10.5837C0.222457 10.38 0.120667 9.95024 0.329135 9.62385C0.537603 9.29745 0.977387 9.19799 1.31142 9.40169L7.05329 12.9032C7.57055 13.2187 8.30497 13.512 9.0402 13.512C9.77543 13.5119 10.4463 13.2185 10.9634 12.903L16.7689 9.36141C17.1029 9.15766 17.5427 9.25705 17.7512 9.58341Z" fill="#7E74F1"/>
<path d="M17.7512 13.0709C17.9597 13.3973 17.8581 13.827 17.5241 14.0308L12.4965 17.0987C10.9414 17.8423 10.2335 18.3018 9.00849 18.3019C7.78346 18.302 6.18843 17.3779 5.52026 17.0991L0.556416 14.0712C0.222409 13.8675 0.120672 13.4377 0.329181 13.1114C0.537689 12.785 0.977484 12.6856 1.31149 12.8893L6.27533 15.9172C7.01015 16.3655 7.99308 16.763 9.00849 16.763C10.0239 16.7629 11.0066 16.3652 11.7412 15.9169L16.7688 12.8491C17.1028 12.6453 17.5426 12.7446 17.7512 13.0709Z" fill="#7E74F1"/>
</svg>
